<svg width="24" height="20" viewBox="0 0 24 20" fill="none" xmlns="http://www.w3.org/2000/svg">
<path d="M23.5118 3.14445C23.3752 2.54126 23.1083 1.99116 22.7376 1.54892C22.3669 1.10668 21.9053 0.787707 21.3989 0.623761C19.521 0.0100019 12.0083 1.08428e-05 12.0083 1.08428e-05C12.0083 1.08428e-05 4.49682 -0.00998085 2.61775 0.576659C2.11162 0.748149 1.65102 1.07163 1.28018 1.51604C0.90933 1.96046 0.640691 2.51089 0.500048 3.11448C0.00479863 5.34971 1.75694e-06 9.98573 1.75694e-06 9.98573C1.75694e-06 9.98573 -0.00479485 14.6446 0.486857 16.857C0.762662 18.0802 1.57209 19.0465 2.60096 19.3762C4.49802 19.99 11.9903 20 11.9903 20C11.9903 20 19.503 20.01 21.3809 19.4248C21.8875 19.2611 22.3495 18.9429 22.7211 18.5015C23.0927 18.0602 23.3611 17.511 23.4998 16.9084C23.9962 14.6746 23.9998 10.04 23.9998 10.04C23.9998 10.04 24.0238 5.37968 23.5118 3.14445ZM9.60521 14.2806L9.6112 5.71653L15.8552 10.0057L9.60521 14.2806Z" fill="#23385C"/>
</svg>
